<?xml version="1.0" standalone="no"?><!DOCTYPE svg PUBLIC "-//W3C//DTD SVG 1.1//EN" "http://www.w3.org/Graphics/SVG/1.1/DTD/svg11.dtd"><svg t="1531495665780" class="icon" style="" viewBox="0 0 1024 1024" version="1.1" xmlns="http://www.w3.org/2000/svg" p-id="9296" xmlns:xlink="http://www.w3.org/1999/xlink" width="14" height="14"><defs><style type="text/css"></style></defs><path d="M507.773234 566.661947c-18.053168 0-32.661887-14.638395-32.661887-32.661887 0-18.052145 14.608719-32.659841 32.661887-32.659841 60.217477 0 120.43393 0 180.590008 0 18.052145 0 32.661887 14.607696 32.661887 32.659841 0 18.023492-14.609743 32.661887-32.661887 32.661887C628.207164 566.661947 567.99071 566.661947 507.773234 566.661947zM477.12112 376.50198c0-18.018376 14.640442-32.660864 32.692586-32.660864 17.987676 0 32.659841 14.642488 32.659841 32.660864L542.473547 533.237697c0 18.052145-14.672164 32.659841-32.659841 32.659841-18.052145 0-32.692586-15.117302-32.692586-33.171494L477.12112 376.50198zM509.813706 109.413945c117.120464 0 223.266993 47.555086 300.06817 124.360356l0.127913 0c76.806293 76.801177 124.32761 182.981475 124.32761 300.225759 0 117.121488-47.521317 223.268016-124.32761 300.069193l-0.127913 0.127913c-76.8022 76.806293-182.947705 124.391055-300.06817 124.391055-117.246331 0-223.423559-47.52234-300.260551-124.391055l0-0.127913C132.749932 757.268076 85.194846 651.121548 85.194846 534.00006c0-117.244284 47.555086-223.424582 124.358309-300.225759C286.390147 156.939355 392.567375 109.413945 509.813706 109.413945L509.813706 109.413945zM763.891426 279.893688c-65.001433-64.967664-154.884556-105.159038-254.077719-105.159038-99.224886 0-189.073216 40.220027-254.076696 105.22146-65.001433 64.97278-105.22146 154.822135-105.22146 254.04395 0 99.258655 40.220027 189.076286 105.156992 254.077719l0.064468-0.061398c65.00348 65.001433 154.850787 105.251136 254.076696 105.251136 99.193163 0 189.076286-40.249703 254.077719-105.189737 64.937988-65.001433 105.124246-154.819065 105.124246-254.077719 0-99.221816-40.186258-189.07117-105.188714-254.04395L763.891426 279.893688zM228.404502 70.533426c13.999852-11.351536 34.541701-9.214872 45.929052 4.783956 11.352559 13.973246 9.249665 34.576493-4.753257 45.961798L142.860197 224.206388c-14.000875 11.384281-34.57547 9.248641-45.959751-4.754281-11.355629-14.002922-8.835226-34.892695 5.16565-46.278L228.404502 70.533426zM791.191188 70.533426c-14.030551-11.351536-34.574447-9.214872-45.929052 4.783956-11.418051 13.973246-9.249665 34.576493 4.722558 45.961798l126.749776 102.927207c13.96813 11.384281 34.576493 9.248641 45.929052-4.754281 11.354606-14.002922 8.865925-34.892695-5.166673-46.278L791.191188 70.533426z" p-id="9297"></path></svg>