<?xml version="1.0" standalone="no"?><!DOCTYPE svg PUBLIC "-//W3C//DTD SVG 1.1//EN" "http://www.w3.org/Graphics/SVG/1.1/DTD/svg11.dtd"><svg t="1531496874105" class="icon" style="" viewBox="0 0 1024 1024" version="1.1" xmlns="http://www.w3.org/2000/svg" p-id="6732" xmlns:xlink="http://www.w3.org/1999/xlink" width="14" height="14"><defs><style type="text/css"></style></defs><path d="M402.285714 219.428571q-87.405714 0-163.401143 29.696t-120.832 80.603429-44.836571 109.129143q0 46.884571 30.281143 90.258286t85.138286 75.410286l55.442286 32.036571-19.968 47.981714q19.456-11.410286 35.401143-22.308571l25.161143-17.700571 30.281143 5.705143q44.544 7.972571 87.405714 7.972571 87.405714 0 163.401143-29.696t120.832-80.603429 44.836571-109.129143-44.836571-109.129143-120.832-80.603429-163.401143-29.696zM402.285714 146.285714q109.129143 0 202.020571 39.131429t146.578286 106.569143 53.686857 146.870857-53.686857 146.870857-146.578286 106.569143-202.020571 39.131429q-49.152 0-100.571429-9.142857-70.875429 50.322286-158.866286 73.142857-20.553143 5.12-49.152 9.142857l-1.682286 0q-6.290286 0-11.702857-4.534857t-6.582857-11.995429q-0.585143-1.682286-0.585143-3.730286t0.292571-3.730286 1.170286-3.437714l1.462857-2.852571t1.974857-3.145143 2.267429-2.852571 2.56-2.852571 2.267429-2.56q2.852571-3.437714 13.165714-14.262857t14.848-16.822857 12.873143-16.603429 14.262857-22.016 11.702857-25.161143q-70.875429-41.179429-111.396571-101.156571t-40.594286-128q0-79.433143 53.686857-146.870857t146.578286-106.569143 202.020571-39.131429zM872.009143 814.299429q5.705143 13.677714 11.702857 25.161143t14.262857 22.016 12.873143 16.603429 14.848 16.822857 13.165714 14.262857q0.585143 0.585143 2.267429 2.56t2.56 2.852571 2.267429 2.852571 1.974857 3.145143l1.462857 2.852571t1.170286 3.437714 0.292571 3.730286-0.585143 3.730286q-1.682286 7.972571-7.460571 12.580571t-12.580571 4.022857q-28.598857-4.022857-49.152-9.142857-87.990857-22.820571-158.866286-73.142857-51.419429 9.142857-100.571429 9.142857-154.843429 0-269.677714-75.410286 33.133714 2.267429 50.322286 2.267429 92.013714 0 176.566857-25.746286t150.820571-73.728q71.460571-52.589714 109.714286-121.124571t38.253714-145.115429q0-44.032-13.165714-86.820571 73.728 40.594286 116.589714 101.741714t42.861714 131.437714q0 68.534857-40.594286 128.292571t-111.396571 100.864z" p-id="6733" data-spm-anchor-id="a313x.7781069.0.i19" class="selected" fill="#7f8c8d"></path></svg>