<?xml version="1.0" standalone="no"?><!DOCTYPE svg PUBLIC "-//W3C//DTD SVG 1.1//EN" "http://www.w3.org/Graphics/SVG/1.1/DTD/svg11.dtd"><svg t="1572114829900" class="icon" viewBox="0 0 1024 1024" version="1.1" xmlns="http://www.w3.org/2000/svg" p-id="1868" xmlns:xlink="http://www.w3.org/1999/xlink" width="200" height="200"><defs><style type="text/css"></style></defs><path d="M252.416 269.312l-114.688-32.256-82.944 294.4 115.2 32.256 13.312-47.104 64.512 52.224 151.04-119.296 78.848-25.6L579.584 481.28l32.256-27.136-75.264-119.808-147.968-8.192-113.664 18.432-10.24-6.656-39.936 75.264-13.312-5.12 27.136-88.576 13.824-50.176z m518.144-17.92l189.952 235.52-92.16 74.24-23.552-29.696-62.464 74.24-65.024-11.264c-45.056 19.456-101.888 73.728-113.152 121.344l34.816 60.928-8.704 10.24c-13.824 15.36-28.672 29.184-46.592 40.96-15.872-9.728-32.256-19.456-48.128-29.184 4.096-27.136 23.552-56.832 28.672-68.096l-9.216-3.584c-15.872 19.456-62.464 64.512-83.968 79.36-15.872-9.728-32.256-19.456-48.128-29.184 3.584-17.92 45.568-66.048 53.248-80.896l-7.68-6.656c-34.816 34.304-73.216 72.704-98.304 79.872l-53.76-46.08c28.16-40.96 81.92-83.968 114.688-114.176l-5.12-15.36c-33.792 27.648-92.16 74.752-126.464 102.4-29.184-8.192-45.568-25.6-50.688-51.712 56.32-55.808 129.024-118.272 202.24-172.544l39.424-12.8 107.008 59.904 58.88-49.664L599.04 377.856c19.968-10.24 38.912-18.432 56.832-24.576l98.816 92.672 12.288-9.728-73.728-92.672-14.848-18.432 92.16-73.728z m44.032 388.608l-71.68-12.288-17.408 21.504 60.928 38.912c10.24-15.36 19.456-31.232 28.16-48.128zM686.08 794.112c14.336-11.776 28.672-24.576 41.984-37.888l-58.368-42.496-20.48 16.384 36.864 64z m54.272-50.176c11.264-12.288 22.016-24.576 32.256-37.888l-78.848-51.2-24.576 27.648 71.168 61.44z" fill="#231815" p-id="1869"></path></svg>