<?xml version="1.0" standalone="no"?><!DOCTYPE svg PUBLIC "-//W3C//DTD SVG 1.1//EN" "http://www.w3.org/Graphics/SVG/1.1/DTD/svg11.dtd"><svg t="1531407138801" class="icon" style="" viewBox="0 0 1024 1024" version="1.1" xmlns="http://www.w3.org/2000/svg" p-id="1941" xmlns:xlink="http://www.w3.org/1999/xlink" width="13" height="13"><defs><style type="text/css"></style></defs><path d="M502.054 183.68c69.605 0.133 132.349 14.482 192.58 40.424 68.932 29.689 129.792 71.797 185.902 121.183 47.445 41.758 90.322 87.848 129.929 137.026 13.577 16.859 12.714 30.815 2.157 46.452-29.091 43.085-62.349 82.697-98.383 120.04-48.923 50.701-103.14 94.712-164.84 129.088-52.59 29.3-108.311 49.788-168.13 58.164-74.098 10.375-146.114 1.624-216.238-24.098-74.147-27.196-139.002-69.687-198.604-120.729-57.139-48.933-107.566-104.215-153.463-163.708-12.511-16.217-12.712-25.623-0.805-42.445 53.434-75.496 117.087-140.989 191.974-195.392 49.495-35.958 102.841-64.598 161.175-83.529 45.676-14.823 92.546-22.319 136.749-22.473zM729.829 312.353c62.471 114.537 26.775 243.337-55.2 312.739-85.635 72.502-206.65 80.404-298.895 18.919-55.437-36.951-91.14-88.173-105.728-153.369-14.559-65.065-3.497-126.304 29.599-184.028-89.074 49.493-160.202 118.702-222.228 198.313 28.273 35.352 57.686 68.854 89.381 100.289 28.474 28.243 58.594 54.593 91.232 78.017 59.076 42.4 123.006 73.687 195.211 86.407 46.052 8.116 92.043 8.097 137.882-1.203 67.85-13.766 128.424-43.944 183.977-84.295 65.973-47.922 121.714-106.232 169.908-171.884 2.369-3.228 2.381-5.26-0.301-8.232-18.146-20.096-35.688-40.754-54.262-60.443-41.478-43.972-86.637-83.725-137.453-116.748-7.624-4.955-15.412-9.661-23.122-14.479zM338.953 446.287c1.141 3.841 1.933 9.901 4.648 14.923 4.954 9.165 17.306 12.925 29.093 10.007 11.171-2.767 17.454-11.352 19.1-23.42 1.913-14.034 3.599-28.346 7.818-41.773 16.275-51.814 52.514-80.178 105.998-86.948 15.556-1.969 26.188-13.654 25.942-29.385-0.226-14.399-9.358-23.32-23.712-22.702-5.562 0.239-11.118 1.18-16.623 2.113-32.155 5.451-61.785 16.983-87.005 38.054-42.629 35.615-59.669 83.495-65.258 139.132z" p-id="1942" fill="#515151"></path></svg>