<?xml version="1.0" standalone="no"?><!DOCTYPE svg PUBLIC "-//W3C//DTD SVG 1.1//EN" "http://www.w3.org/Graphics/SVG/1.1/DTD/svg11.dtd"><svg t="1531495510086" class="icon" style="" viewBox="0 0 1024 1024" version="1.1" xmlns="http://www.w3.org/2000/svg" p-id="1995" xmlns:xlink="http://www.w3.org/1999/xlink" width="14" height="14"><defs><style type="text/css"></style></defs><path d="M512 192c-223.328 0-416.896 130.048-512 320 95.104 189.952 288.672 320 512 320s416.864-130.048 512-320c-95.104-189.952-288.672-320-512-320zM764.448 361.696c60.16 38.368 111.136 89.76 149.44 150.304-38.304 60.512-89.28 111.936-149.44 150.304-75.584 48.224-162.88 73.696-252.448 73.696s-176.864-25.472-252.448-73.696c-60.16-38.368-111.136-89.76-149.44-150.304 38.304-60.512 89.28-111.936 149.44-150.304 3.904-2.496 7.872-4.928 11.872-7.296-9.952 27.328-15.424 56.832-15.424 87.584 0 141.376 114.624 256 256 256s256-114.624 256-256c0-30.784-5.44-60.256-15.424-87.584 3.968 2.368 7.936 4.8 11.872 7.296l0 0zM512 416c0 53.024-42.976 96-96 96s-96-42.976-96-96 42.976-96 96-96 96 42.976 96 96z" p-id="1996" fill="#7f8c8d"></path></svg>