<?xml version="1.0" standalone="no"?><!DOCTYPE svg PUBLIC "-//W3C//DTD SVG 1.1//EN" "http://www.w3.org/Graphics/SVG/1.1/DTD/svg11.dtd"><svg t="1531398415290" class="icon" style="" viewBox="0 0 1024 1024" version="1.1" xmlns="http://www.w3.org/2000/svg" p-id="4547" xmlns:xlink="http://www.w3.org/1999/xlink" width="14" height="14"><defs><style type="text/css"></style></defs><path d="M238.976 171.776c24.448-45.568 61.824-76.8 110.72-94.848 40.832-15.232 83.328-18.688 126.592-15.616 33.024 2.432 64.512 10.112 93.952 25.088 45.696 23.296 77.312 59.136 95.872 106.112 15.744 39.808 20.48 81.408 15.744 123.648-7.424 67.584-25.088 132.608-55.168 194.048-17.792 36.48-40.832 69.376-73.088 95.232-27.392 21.888-58.368 35.2-94.08 36.992-59.136 2.944-105.6-21.76-143.744-63.872-30.464-33.536-50.944-72.96-66.56-114.816l0 0c-17.664-47.104-30.08-95.488-35.968-145.536-1.152-9.728-1.28-19.712-1.664-25.216C211.712 247.68 219.392 208.384 238.976 171.776L238.976 171.776zM238.976 171.776M32.384 963.712c-0.128-1.664-0.256-3.072-0.256-4.608 0-25.344-0.128-50.56 0-75.904 0.128-20.352 2.304-40.32 9.984-59.392 9.728-24.576 27.52-42.112 50.56-54.528 30.464-16.384 63.232-27.136 96.512-36.48 44.544-12.416 89.856-19.84 135.808-24.832 57.216-6.144 111.232-11.008 168.704-9.088 27.904 0.896 59.136 6.528 87.168 8.32 1.28 0.128 2.688 0.512 3.328 0.512-1.28 117.888 51.84 202.624 158.08 255.872L32.384 963.712 32.384 963.712zM32.384 963.712M992 737.664l-115.2 0 0 113.152-76.8 0 0-113.152-115.2 0 0-75.136 115.2 0L800 549.12l76.8 0 0 113.408 115.2 0L992 737.664zM992 737.664" p-id="4548"></path></svg>