<?xml version="1.0" standalone="no"?><!DOCTYPE svg PUBLIC "-//W3C//DTD SVG 1.1//EN" "http://www.w3.org/Graphics/SVG/1.1/DTD/svg11.dtd"><svg t="1531308658326" class="icon" style="" viewBox="0 0 1024 1024" version="1.1" xmlns="http://www.w3.org/2000/svg" p-id="3731" xmlns:xlink="http://www.w3.org/1999/xlink" width="20" height="20"><defs><style type="text/css"></style></defs><path d="M512 85.333333A426.666667 426.666667 0 0 0 85.333333 512c0 188.586667 122.453333 348.586667 291.84 405.333333 21.333333 3.413333 28.16-9.813333 28.16-21.333333v-72.106667c-118.186667 25.6-143.36-57.173333-143.36-57.173333-19.626667-49.493333-47.36-62.72-47.36-62.72-38.826667-26.453333 2.986667-25.6 2.986667-25.6 42.666667 2.986667 65.28 43.946667 65.28 43.946667 37.12 64.853333 99.84 45.653333 124.16 35.413333 3.84-27.733333 14.933333-46.506667 26.88-57.173333-94.72-10.666667-194.133333-47.36-194.133333-209.92 0-47.36 16.213333-85.333333 43.946666-115.626667-4.266667-10.666667-19.2-55.04 4.266667-112.64 0 0 35.84-11.52 117.333333 43.52 33.706667-9.386667 70.4-14.08 106.666667-14.08 36.266667 0 72.96 4.693333 106.666667 14.08 81.493333-55.04 117.333333-43.52 117.333333-43.52 23.466667 57.6 8.533333 101.973333 4.266667 112.64 27.733333 30.293333 43.946667 68.266667 43.946666 115.626667 0 162.986667-99.84 198.826667-194.986666 209.493333 15.36 13.226667 29.44 39.253333 29.44 78.933333V896c0 11.52 6.826667 25.173333 28.586666 21.333333C816.64 860.16 938.666667 700.586667 938.666667 512A426.666667 426.666667 0 0 0 512 85.333333z" fill="#ffffff" p-id="3732"></path></svg>