<?xml version="1.0" standalone="no"?><!DOCTYPE svg PUBLIC "-//W3C//DTD SVG 1.1//EN" "http://www.w3.org/Graphics/SVG/1.1/DTD/svg11.dtd"><svg t="1531496118549" class="icon" style="" viewBox="0 0 1024 1024" version="1.1" xmlns="http://www.w3.org/2000/svg" p-id="2398" xmlns:xlink="http://www.w3.org/1999/xlink" width="14" height="14"><defs><style type="text/css"></style></defs><path d="M896 160l-768 0c-70.688 0-128 57.344-128 128l0 416c0 70.688 57.312 128 128 128l768 0c70.688 0 128-57.312 128-128l0-416c0-70.656-57.312-128-128-128zM64 328l223.968 168-223.968 168 0-336zM960 704c0 35.328-28.736 64-64 64l-768 0c-35.296 0-64-28.672-64-64l250.624-188 139.776 104.864c17.056 12.736 37.312 19.2 57.6 19.2 20.256 0 40.512-6.432 57.568-19.2l139.808-104.864 250.624 188zM960 664l-224-168 224-168 0 336zM550.368 595.264c-11.168 8.384-24.416 12.8-38.368 12.8s-27.232-4.448-38.4-12.8l-409.6-307.264c0-35.296 28.704-64 64-64l768 0c35.264 0 64 28.704 64 64l-409.632 307.264z" p-id="2399" fill="#707070"></path></svg>