<?xml version="1.0" standalone="no"?><!DOCTYPE svg PUBLIC "-//W3C//DTD SVG 1.1//EN" "http://www.w3.org/Graphics/SVG/1.1/DTD/svg11.dtd"><svg t="1531398374585" class="icon" style="" viewBox="0 0 1024 1024" version="1.1" xmlns="http://www.w3.org/2000/svg" p-id="3396" xmlns:xlink="http://www.w3.org/1999/xlink" width="14" height="14"><defs><style type="text/css"></style></defs><path d="M893.044436 754.285139 685.900655 532.199041c-11.492752-11.583826-30.096459-11.583826-41.593304 0-11.481496 11.576663-11.481496 30.348192 0 41.903366l187.431833 207.751624L199.87626 781.854031l187.42467-207.751624c11.496845-11.555174 11.496845-30.348192 0-41.903366-11.481496-11.583826-30.096459-11.583826-41.582047 0L131.744533 757.979274 131.744533 284.814768 461.379089 560.63058c16.624632 16.731056 30.816866 29.153994 54.428633 29.153994 23.61586 0 34.141588-12.418844 50.741661-29.153994L893.040343 284.791232l0 469.49493 0.004093 0L893.044436 754.285139zM846.49526 242.672972 524.95608 518.722098c-10.991332 11.101849-10.942213 11.127432-21.970384 0L181.454702 242.672972 846.49526 242.672972zM882.543268 193.310727 141.456732 193.310727c-32.351825 0-58.81964 26.681686-58.81964 59.284221l0 518.809079c0 32.602535 26.467815 59.284221 58.81964 59.284221l741.086535 0c32.351825 0 58.81964-26.681686 58.81964-59.284221L941.362908 252.593925C941.362908 219.99139 914.895093 193.310727 882.543268 193.310727z" p-id="3397" fill="#8a8a8a"></path></svg>