<?xml version="1.0" standalone="no"?><!DOCTYPE svg PUBLIC "-//W3C//DTD SVG 1.1//EN" "http://www.w3.org/Graphics/SVG/1.1/DTD/svg11.dtd"><svg t="1572113816616" class="icon" viewBox="0 0 1024 1024" version="1.1" xmlns="http://www.w3.org/2000/svg" p-id="2301" xmlns:xlink="http://www.w3.org/1999/xlink" width="200" height="200"><defs><style type="text/css"></style></defs><path d="M933.8 540.1c-15.3-2.1-29.4 8.7-31.5 24-28.8 214.5-226 365.2-440.6 336.4s-365.2-226-336.4-440.6c28.8-214.6 226-365.2 440.6-336.4 113.2 15.2 208 77.7 268.5 164.5H681.8c-15.5 0-28 12.5-28 28s12.5 28 28 28h195.8c30.9 0 56.2-25.2 56.2-56.2V92c0-15.5-12.5-28-28-28s-28 12.5-28 28l-0.1 160.5C808.4 155.1 701.3 85.2 573.4 68 328.2 35.1 102.8 207.3 69.9 452.5 37 697.7 209.1 923.1 454.3 956S925 816.7 957.9 571.5c2-15.3-8.7-29.4-24.1-31.4z" p-id="2302" fill="#8a8a8a"></path></svg>