<?xml version="1.0" standalone="no"?><!DOCTYPE svg PUBLIC "-//W3C//DTD SVG 1.1//EN" "http://www.w3.org/Graphics/SVG/1.1/DTD/svg11.dtd"><svg t="1531305598463" class="icon" style="" viewBox="0 0 1024 1024" version="1.1" xmlns="http://www.w3.org/2000/svg" p-id="1961" xmlns:xlink="http://www.w3.org/1999/xlink" width="16" height="16"><defs><style type="text/css"></style></defs><path d="M992.262 871.396 749.71 665.102c-25.074-22.566-51.89-32.926-73.552-31.926C733.414 566.108 768 479.098 768 384 768 171.922 596.078 0 384 0 171.924 0 0 171.922 0 384c0 212.078 171.922 384 384 384 95.098 0 182.108-34.586 249.176-91.844-1 21.662 9.36 48.478 31.926 73.552l206.294 242.552c35.322 39.246 93.022 42.554 128.22 7.356S1031.508 906.718 992.262 871.396zM384 640c-141.384 0-256-114.616-256-256S242.616 128 384 128s256 114.616 256 256S525.386 640 384 640z" p-id="1962" fill="#2c2c2c"></path></svg>